PathFileType	4	(X/Y/Z)	Patient4_TMGait_0pt7_02_left_17.trc.trc
DataRate	CameraRate	NumFrames	NumMarkers	Units	OrigDataRate	OrigDataStartFrame	OrigNumFrames
86.419753086420	86.419753086420	6	33	mm	86.419753086420	36	       141
Frame#	Time	Sacral			L.Shoulder			Chest			R.Shoulder			Neck			R.ASIS			L.ASIS			R.Thigh.Superior			R.Thigh.Lateral			R.Thigh.Inferior			R.Patella			L.Thigh.Superior			L.Thigh.Lateral			L.Thigh.Inferior			L.Patella			L.Shank.Superior			L.Shank.Lateral			L.Shank.Inferior			R.Shank.Superior			R.Shank.Lateral			R.Shank.Inferior			R.Heel			R.Midfoot.Superior			R.Midfoot.Lateral			R.Toe			L.Heel			L.Midfoot.Lateral			L.Midfoot.Superior			L.Toe			L.Elbow			L.Wrist			R.Elbow			R.Wrist			
		X1	Y1	Z1	X2	Y2	Z2	X3	Y3	Z3	X4	Y4	Z4	X5	Y5	Z5	X6	Y6	Z6	X7	Y7	Z7	X8	Y8	Z8	X9	Y9	Z9	X10	Y10	Z10	X11	Y11	Z11	X12	Y12	Z12	X13	Y13	Z13	X14	Y14	Z14	X15	Y15	Z15	X16	Y16	Z16	X17	Y17	Z17	X18	Y18	Z18	X19	Y19	Z19	X20	Y20	Z20	X21	Y21	Z21	X22	Y22	Z22	X23	Y23	Z23	X24	Y24	Z24	X25	Y25	Z25	X26	Y26	Z26	X27	Y27	Z27	X28	Y28	Z28	X29	Y29	Z29	X30	Y30	Z30	X31	Y31	Z31	X32	Y32	Z32	X33	Y33	Z33	

36	19.595000000000	820.640948790058	999.865938743449	482.152860889896	980.136975393043	1419.689055369941	281.509169043405	1108.659146789177	1348.726570712302	424.281466259104	1055.367796052707	1427.740962501329	608.200953971701	1008.638801770467	1480.945695610132	433.279078879420	1052.262713945519	926.718776719956	575.405895347231	1016.645382353694	948.190059367892	303.520343014728	1056.233522927510	714.286768160673	555.303840820329	959.835779801657	617.694950311917	622.807957115987	1026.530944866875	549.071428868155	547.412437290726	1005.737175323213	446.763593886640	565.780105144717	1097.855511355575	767.155146907849	329.737597499467	1033.543462472145	636.544682503221	267.946526566520	1138.022349859721	575.629674964957	322.453654494665	1153.878837144011	504.089299668940	327.185816950901	1132.011598268713	428.033839471429	319.941577475553	1050.127697990633	307.223482889740	270.875022010016	1116.857567216951	198.912402219654	333.639911440950	933.196952757076	379.712479769880	573.278371658374	817.912312379079	326.241908566032	634.045962279931	813.298959698827	218.109374482484	580.578183078999	619.200892284761	115.624394455297	550.544549993952	796.178802303898	107.301471543207	593.119509593469	691.223538531309	74.899637222562	624.756019798230	888.213038152848	35.835547013786	618.746076219948	1004.504788429677	39.038588161335	379.779227470411	1072.730797243645	35.862688151680	293.902871279435	1156.455532775507	97.916622646693	315.350461728842	1283.211963376003	47.361286820130	278.179644937212	836.100636990759	1093.369502562072	203.893930946807	796.054685105160	837.885221605942	209.367372889829	1160.554488576474	1101.013351433855	722.559962676424	1337.245176268126	1235.253698155954	611.306548378387	
37	19.606571428571	820.998520137538	1001.115093260391	478.891699480514	980.959639213703	1421.234439869289	279.097181086249	1109.241498099732	1350.184284647875	422.046316214027	1055.538735628259	1429.068137276187	605.881755852799	1009.279667061734	1482.308005620326	430.897622845520	1052.609935801031	927.944880708964	572.274508036958	1017.524552849926	949.788828542961	300.635085069993	1060.617881829454	716.175446378091	553.240244142207	966.607724096717	618.108140218715	621.277307332540	1035.667775322101	550.130943927323	546.633803508412	1016.011825166512	446.349411236688	566.685351980027	1097.759629869703	766.918409466300	326.650080518611	1031.584118941794	636.549064926726	266.243308876175	1135.459889597303	574.790255652099	320.884808888698	1150.691336723063	503.386241047415	326.404050232544	1128.089331725963	427.423545464240	319.129607900459	1045.126854217145	307.331019557936	270.301137293243	1110.328393940809	198.492675098148	333.488982851866	941.111152259482	380.439289138457	574.003903642061	823.242715163149	331.715077239207	633.818929213901	815.906116154467	222.983123685351	581.952729805323	618.503781518318	129.606544172731	551.531381362914	794.359065610444	110.047228739624	594.560104411192	687.589765466020	83.726552049325	625.349880691442	880.461459553279	34.894450923420	618.733547920813	996.506329176772	38.957337361735	379.635518527630	1064.721682424751	35.929756797471	293.768460242878	1148.446031216121	97.974175154620	315.357687773111	1275.188294702760	47.413948715193	277.990334034497	841.361061222172	1092.422525934655	200.554619227841	812.064660622194	835.263524822331	204.082824014193	1151.838499928495	1100.019847323453	722.791021738473	1332.379469381530	1228.575865467826	611.344598341012	
38	19.618142857143	821.239443969052	1002.314835120198	475.676467503906	981.905974533692	1422.787254142322	276.712102923842	1109.789918524070	1351.626337230817	419.935019222221	1055.455587686713	1430.340095647191	603.642899334288	1009.809813796618	1483.622739301874	428.548649329900	1052.812977237636	929.158444593269	569.308439170548	1018.339500672740	951.263317550974	297.957370074843	1065.367263224123	718.274523291739	551.408173322446	973.880736341269	618.638376729407	619.931298140698	1045.315194327703	551.467955508796	545.940255401352	1026.853210855876	446.324393017630	567.369320188217	1097.182441442876	766.296998513110	323.832547852816	1029.209396907065	636.474575032714	264.564227734411	1132.347581559466	573.810577205858	319.524951058089	1146.880408870987	502.541292441156	325.640678481774	1123.591005996076	426.735102702078	318.295937052631	1039.660773062939	307.261702248991	269.802325096482	1103.566087171704	198.042833880497	333.339192584995	949.805262898290	381.428377407995	574.561561492008	829.640924673964	337.475811834974	633.611205575221	819.465542950682	228.302983382628	583.263834368360	619.295283148662	144.665167514317	552.520010404701	793.240496665225	113.325414713137	595.921438692863	684.953408073743	93.658472971029	625.961173093686	872.856279435312	33.676295892668	618.789285103188	988.473677089173	38.855867555104	379.576282412388	1056.668159296236	35.929434154811	293.702711955970	1140.419534062643	97.951383556235	315.393802280929	1267.148322619974	47.300260584564	277.849789723547	846.615435789053	1091.687590872886	197.010753259542	829.097556437088	833.214110444479	198.528640248289	1142.361880126427	1099.115651571620	723.081170064980	1327.818494324016	1220.398547646055	611.786373120665	
39	19.629714285714	821.352147574567	1003.415482905022	472.570062451047	982.973204542179	1424.281718631510	274.367278335726	1110.297862884590	1352.984562463081	417.965650243368	1055.139866138332	1431.521821462196	601.499823169930	1010.242927362633	1484.852860332112	426.242697098595	1052.866174497919	930.326892510819	566.546736685272	1019.031834549236	952.585769987371	295.487776483220	1070.406014081665	720.599671898197	549.776263299077	981.598603147322	619.320225093780	618.751372438579	1055.347384755401	553.126022447810	545.265436699168	1038.152815023720	446.716599311963	567.737703029032	1096.172272428400	765.426870419632	321.300350236735	1026.557911822663	636.403002638135	262.866557726828	1128.811283991345	572.776983309887	318.308953786213	1142.573476268607	501.614451609272	324.823365351431	1118.650209611572	425.999920893296	317.418716222186	1033.857668690950	307.066776424307	269.289760899039	1096.629115162954	197.580303753375	333.163710666015	959.171382683859	382.703319896286	574.854611711229	837.051653425219	343.449035116705	633.394012868473	823.936868853215	234.022030690087	584.423191337824	621.635595044035	160.559320114215	553.472923484428	792.867124688384	117.185706450813	597.145198718625	683.441648610599	104.588381724689	626.562853675873	865.538323154700	32.224670794616	618.919206442055	980.403571335221	38.755299653027	379.562885447132	1048.574443328203	35.879718318214	293.673967666960	1132.386030807907	97.858787975935	315.435550788375	1259.099977995566	47.028566821837	277.749858675781	851.944224902994	1091.073300869135	193.228870700099	847.089022310340	831.781875262408	192.745891102418	1132.224925040784	1098.285871871492	723.357569488269	1323.488371666892	1210.681997318769	612.681338278246	
40	19.641285714286	821.326570664015	1004.385543102312	469.617220618206	984.137173564499	1425.665320965703	272.081681128665	1110.753083522528	1354.205591721430	416.153157301608	1054.622792219193	1432.588939133878	599.468568615458	1010.597684162623	1485.974589777585	423.997755731789	1052.765548958624	931.430394875618	564.016609697474	1019.556179718702	953.747070138454	293.211673873208	1075.633482307964	723.170758701871	548.288667571963	989.683709535665	620.201328750245	617.707272378429	1065.626115504679	555.156243174406	544.542191350459	1049.806416838634	447.557228096649	567.735161040120	1094.805352128877	764.439010434597	319.030148490305	1023.729261794804	636.381264857475	261.138497611953	1124.972996382641	571.750829850438	317.169067211684	1137.906965641307	500.656630364437	323.911641926771	1113.402227728552	425.245588795953	316.490041587128	1027.830099984358	306.798681503870	268.715532506650	1089.574453023328	197.120394839922	332.946447386484	969.097607231756	384.295393008401	574.821032995657	845.390180312798	349.561211672951	633.138800507217	829.274496820703	240.080349087864	585.354733425398	625.532575787340	176.968060012271	554.343798270936	793.307380266415	121.639583606312	598.177584969541	683.171553343171	116.323973366030	627.119332326139	858.710064140637	30.652623339104	619.115597251914	972.300232367418	38.669778230578	379.563124422161	1040.448977806661	35.800544431829	293.656092316181	1124.351758209245	97.715995899121	315.464943956816	1251.048864981444	46.632246080787	277.677101130441	857.447105760294	1090.496135877912	189.176135152331	865.968221248413	831.003581699590	186.780393581562	1121.541950208149	1097.519407073057	723.546645231259	1319.285564891263	1199.391649601253	614.081427781577	
41	19.652857142857	821.155396145590	1005.213350652234	466.842337826578	985.356769123979	1426.902046534728	269.876346132671	1111.139054476358	1355.256023079911	414.508380592870	1053.938121668512	1433.528330889184	597.563907347136	1010.893653076799	1486.977152094587	421.835571935281	1052.509866566555	932.462284712162	561.735689429797	1019.887963583284	954.754188313978	291.107940973664	1080.936138313057	726.006981724961	546.869854060267	998.044510695877	621.335524622179	616.758768808167	1076.012886158906	557.610100279895	543.708260519232	1061.719181618414	448.879105953073	567.344949330587	1093.174959958291	763.438341705757	316.969832811556	1020.778816920653	636.422559847408	259.400803592851	1120.937064377295	570.765736650190	316.048429268262	1133.007515579048	499.704821431862	322.900349101586	1107.967213897979	424.493168908831	315.517682468500	1021.665152364326	306.504305581384	268.071950990939	1082.451541801181	196.674068626302	332.683626894398	979.477369041967	386.239936857180	574.440324924039	854.548923094541	355.743081306707	632.817393496559	835.434638033136	246.403715945609	586.002407509694	630.936316528817	193.499054393689	555.081616923674	794.654932208872	126.652707156382	598.973364281954	684.242761514099	128.589249318028	627.589111611882	852.643901895896	29.143041262955	619.356245511347	964.172498726075	38.607128456349	379.554266672700	1032.302061523939	35.710444069494	293.631221233242	1116.320100179483	97.544994927265	315.471911624822	1242.998288562948	46.155410238818	277.617401209030	863.231481639188	1089.892282282293	184.824351022522	885.653927762895	830.913047867696	180.684361388807	1110.439604339418	1096.814010841035	723.579451188295	1315.079705218132	1186.508861889282	616.035250974535	
